<svg width="264" height="198" viewBox="0 0 264 198" fill="none" xmlns="http://www.w3.org/2000/svg">
<g clip-path="url(#clip0_31_9065)">
<path d="M252.6 183.822H53.8937C50.8712 183.818 47.9734 182.615 45.8361 180.476C43.6988 178.336 42.4966 175.436 42.4932 172.41V66.2462C42.4966 63.2207 43.6988 60.32 45.8361 58.1807C47.9734 56.0413 50.8712 54.8379 53.8937 54.8345H252.6C255.622 54.8379 258.52 56.0413 260.657 58.1807C262.794 60.32 263.997 63.2207 264 66.2462V172.41C263.997 175.436 262.794 178.336 260.657 180.476C258.52 182.615 255.622 183.818 252.6 183.822Z" fill="white"/>
<path d="M202.026 176.028L9.95409 125.064C7.0333 124.285 4.54029 122.379 3.022 119.763C1.50371 117.146 1.08413 114.034 1.85531 111.109L29.0312 8.48925C29.809 5.5656 31.7136 3.07014 34.3271 1.55037C36.9407 0.0305867 40.0498 -0.389403 42.9723 0.382538L235.044 51.3472C237.965 52.1258 240.458 54.0322 241.977 56.6484C243.495 59.2645 243.914 62.3767 243.143 65.3021L215.967 167.922C215.19 170.845 213.285 173.341 210.671 174.861C208.058 176.38 204.949 176.8 202.026 176.028ZM42.7953 1.05107C40.0499 0.325926 37.1292 0.720467 34.674 2.14814C32.2189 3.57581 30.4297 5.92001 29.6991 8.66647L2.52319 111.286C1.79876 114.034 2.19292 116.958 3.61919 119.415C5.04546 121.873 7.38736 123.664 10.1311 124.395L202.203 175.36C204.949 176.085 207.869 175.69 210.325 174.263C212.78 172.835 214.569 170.491 215.3 167.744L242.475 65.1248C243.2 62.3767 242.806 59.4532 241.379 56.9956C239.953 54.538 237.611 52.7471 234.867 52.0158L42.7953 1.05107Z" fill="#D0D0D0"/>
<path d="M210.106 198H11.4006C8.37799 197.997 5.4802 196.793 3.34292 194.654C1.20564 192.514 0.00341429 189.614 0 186.588V80.4244C0.00341429 77.3989 1.20564 74.4983 3.34292 72.3589C5.4802 70.2195 8.37799 69.0161 11.4006 69.0127H210.106C213.129 69.0161 216.027 70.2195 218.164 72.3589C220.301 74.4983 221.504 77.3989 221.507 80.4244V186.588C221.504 189.614 220.301 192.514 218.164 194.654C216.027 196.793 213.129 197.997 210.106 198Z" fill="white"/>
<path d="M156.12 189.009H27.8018C27.6411 189.01 27.4806 189.006 27.3223 188.997L88.011 154.784C89.1666 154.12 91.7592 153.886 93.8018 154.262C94.3618 154.348 94.9042 154.524 95.4078 154.784L136.138 177.743L138.089 178.842L156.12 189.009Z" fill="#D0D0D0"/>
<path d="M196.603 189.009H85.6182L107.125 178.842L108.673 178.11L136.698 164.86C138.535 163.992 142.955 163.938 145.115 164.696C145.26 164.748 145.395 164.803 145.519 164.86L196.603 189.009Z" fill="#D0D0D0"/>
<path d="M11.4005 69.7043C8.56116 69.7076 5.83899 70.838 3.83125 72.8478C1.8235 74.8575 0.694137 77.5823 0.690918 80.4245V186.588C0.694137 189.43 1.8235 192.155 3.83125 194.165C5.83899 196.175 8.56116 197.305 11.4005 197.308H210.106C212.946 197.305 215.668 196.175 217.676 194.165C219.683 192.155 220.813 189.43 220.816 186.588V80.4245C220.813 77.5823 219.683 74.8575 217.676 72.8478C215.668 70.838 212.946 69.7076 210.106 69.7043H11.4005Z" fill="#1C1C1C"/>
<path d="M210.107 189.701H11.4007C10.5764 189.7 9.78611 189.371 9.20322 188.788C8.62033 188.204 8.29245 187.413 8.2915 186.588V80.4244C8.29245 79.5993 8.62033 78.8082 9.20322 78.2248C9.78611 77.6413 10.5764 77.3131 11.4007 77.3121H210.107C210.931 77.3131 211.721 77.6413 212.304 78.2248C212.887 78.8082 213.215 79.5993 213.216 80.4244V186.588C213.215 187.413 212.887 188.204 212.304 188.788C211.721 189.371 210.931 189.7 210.107 189.701ZM11.4007 78.0038C10.7596 78.0045 10.1449 78.2597 9.69155 78.7135C9.23818 79.1674 8.98317 79.7826 8.98245 80.4244V186.588C8.98317 187.23 9.23818 187.845 9.69155 188.299C10.1449 188.753 10.7596 189.008 11.4007 189.009H210.107C210.748 189.008 211.362 188.753 211.816 188.299C212.269 187.845 212.524 187.23 212.525 186.588V80.4244C212.524 79.7826 212.269 79.1674 211.816 78.7135C211.362 78.2597 210.748 78.0045 210.107 78.0038H11.4007Z" fill="#F5F5F5"/>
<path d="M174.773 153.276C189.732 153.276 201.859 138.082 201.859 119.339C201.859 100.596 189.732 85.4019 174.773 85.4019C159.813 85.4019 147.687 100.596 147.687 119.339C147.687 138.082 159.813 153.276 174.773 153.276Z" fill="#F5F5F5"/>
<path d="M174.847 112.515H174.921L176.261 189.383H173.433L174.847 112.515Z" fill="#F5F5F5"/>
<path d="M179.467 163.404C179.55 163.561 179.567 163.745 179.514 163.915C179.462 164.085 179.344 164.227 179.187 164.31L175.302 166.357L174.678 165.17L178.563 163.123C178.72 163.04 178.903 163.023 179.073 163.076C179.243 163.129 179.384 163.247 179.467 163.404Z" fill="#F5F5F5"/>
<path d="M96.901 153.276C111.86 153.276 123.987 138.082 123.987 119.339C123.987 100.596 111.86 85.4019 96.901 85.4019C81.9418 85.4019 69.8149 100.596 69.8149 119.339C69.8149 138.082 81.9418 153.276 96.901 153.276Z" fill="#F5F5F5"/>
<path d="M101.596 164.675V164.675C101.513 164.518 101.371 164.4 101.201 164.347C101.032 164.294 100.848 164.311 100.691 164.394L97.979 165.823L97.0501 112.515H96.9757L95.562 189.383H98.3896L98.0052 167.325L101.315 165.58C101.472 165.498 101.59 165.356 101.643 165.186C101.695 165.016 101.678 164.832 101.596 164.675Z" fill="#F5F5F5"/>
<path d="M141.732 157.729C141.68 157.631 141.609 157.543 141.523 157.472C141.437 157.401 141.339 157.347 141.232 157.314C141.126 157.281 141.014 157.269 140.903 157.279C140.792 157.289 140.684 157.322 140.585 157.373L137.149 159.184L135.972 91.6366H135.878L134.086 189.037H137.669L137.182 161.087L141.376 158.877C141.475 158.825 141.562 158.754 141.633 158.668C141.705 158.582 141.758 158.483 141.791 158.377C141.824 158.27 141.836 158.158 141.826 158.047C141.816 157.936 141.784 157.828 141.732 157.729Z" fill="#1C1C1C"/>
<path d="M210.797 197.308H12.0915C9.06891 197.305 6.17112 196.102 4.03384 193.962C1.89656 191.823 0.694332 188.922 0.690918 185.897V79.7329C0.694332 76.7073 1.89656 73.8067 4.03384 71.6673C6.17112 69.5279 9.06891 68.3245 12.0915 68.3211H210.797C213.82 68.3245 216.718 69.5279 218.855 71.6673C220.992 73.8067 222.194 76.7073 222.198 79.7329V185.897C222.194 188.922 220.992 191.823 218.855 193.962C216.718 196.102 213.82 197.305 210.797 197.308Z" fill="white"/>
<path d="M156.811 188.317H28.4927C28.332 188.318 28.1715 188.314 28.0132 188.305L88.7019 154.093C89.8575 153.428 92.4502 153.194 94.4927 153.57C95.0528 153.656 95.5951 153.833 96.0988 154.093L136.829 177.052L138.78 178.15L156.811 188.317Z" fill="#D0D0D0"/>
<path d="M197.294 188.317H86.3091L107.816 178.15L109.364 177.418L137.389 164.168C139.226 163.3 143.646 163.246 145.806 164.005C145.951 164.056 146.086 164.111 146.21 164.168L197.294 188.317Z" fill="#D0D0D0"/>
<path d="M210.797 197.308H12.0915C9.06891 197.305 6.17112 196.102 4.03384 193.962C1.89656 191.823 0.694332 188.922 0.690918 185.897V79.7329C0.694332 76.7073 1.89656 73.8067 4.03384 71.6673C6.17112 69.5279 9.06891 68.3245 12.0915 68.3211H210.797C213.82 68.3245 216.718 69.5279 218.855 71.6673C220.992 73.8067 222.194 76.7073 222.198 79.7329V185.897C222.194 188.922 220.992 191.823 218.855 193.962C216.718 196.102 213.82 197.305 210.797 197.308ZM12.0915 69.0127C9.2521 69.0159 6.52994 70.1464 4.52219 72.1561C2.51445 74.1659 1.38508 76.8907 1.38186 79.7329V185.897C1.38508 188.739 2.51445 191.464 4.52219 193.473C6.52994 195.483 9.2521 196.614 12.0915 196.617H210.797C213.637 196.614 216.359 195.483 218.367 193.473C220.374 191.464 221.504 188.739 221.507 185.897V79.7329C221.504 76.8907 220.374 74.1659 218.367 72.1561C216.359 70.1464 213.637 69.0159 210.797 69.0127H12.0915Z" fill="#1C1C1C"/>
<path d="M210.798 189.009H12.0917C11.2673 189.008 10.477 188.68 9.89414 188.096C9.31125 187.513 8.98337 186.722 8.98242 185.897V79.7328C8.98337 78.9077 9.31125 78.1166 9.89414 77.5332C10.477 76.9497 11.2673 76.6215 12.0917 76.6205H210.798C211.622 76.6215 212.412 76.9497 212.995 77.5332C213.578 78.1166 213.906 78.9077 213.907 79.7328V185.897C213.906 186.722 213.578 187.513 212.995 188.096C212.412 188.68 211.622 189.008 210.798 189.009ZM12.0917 77.3122C11.4505 77.3129 10.8358 77.5682 10.3825 78.022C9.9291 78.4758 9.67408 79.0911 9.67337 79.7328V185.897C9.67408 186.538 9.9291 187.154 10.3825 187.608C10.8358 188.061 11.4505 188.317 12.0917 188.317H210.798C211.439 188.317 212.053 188.061 212.507 187.608C212.96 187.154 213.215 186.538 213.216 185.897V79.7328C213.215 79.0911 212.96 78.4758 212.507 78.022C212.053 77.5682 211.439 77.3129 210.798 77.3122H12.0917Z" fill="#F5F5F5"/>
<path d="M175.463 152.584C190.423 152.584 202.55 137.39 202.55 118.647C202.55 99.9044 190.423 84.7103 175.463 84.7103C160.504 84.7103 148.377 99.9044 148.377 118.647C148.377 137.39 160.504 152.584 175.463 152.584Z" fill="#F5F5F5"/>
<path d="M175.538 111.823H175.612L176.952 188.691H174.124L175.538 111.823Z" fill="#F5F5F5"/>
<path d="M180.158 162.712C180.241 162.87 180.258 163.054 180.205 163.223C180.152 163.393 180.035 163.535 179.877 163.618L175.993 165.665L175.369 164.479L179.253 162.432C179.411 162.349 179.594 162.332 179.764 162.384C179.934 162.437 180.075 162.555 180.158 162.712Z" fill="#F5F5F5"/>
<path d="M97.5919 152.584C112.551 152.584 124.678 137.39 124.678 118.647C124.678 99.9044 112.551 84.7103 97.5919 84.7103C82.6327 84.7103 70.5059 99.9044 70.5059 118.647C70.5059 137.39 82.6327 152.584 97.5919 152.584Z" fill="#F5F5F5"/>
<path d="M102.287 163.983V163.983C102.204 163.826 102.062 163.708 101.892 163.655C101.723 163.603 101.539 163.62 101.382 163.702L98.6699 165.132L97.741 111.823H97.6666L96.2529 188.692H99.0805L98.6961 166.633L102.006 164.889C102.163 164.806 102.281 164.664 102.334 164.494C102.386 164.324 102.369 164.141 102.287 163.983Z" fill="#F5F5F5"/>
<path d="M151.312 94.1112L149.683 92.4831C148.732 91.5335 147.442 91 146.098 91C144.754 91 143.464 91.5335 142.513 92.4831L110.899 124.063L79.2839 92.4831C78.3332 91.5335 77.0438 91 75.6993 91C74.3548 91 73.0654 91.5335 72.1147 92.4831L70.4848 94.1112C70.0141 94.5815 69.6406 95.1397 69.3859 95.754C69.1311 96.3684 69 97.0269 69 97.6919C69 98.3568 69.1311 99.0153 69.3859 99.6297C69.6406 100.244 70.0141 100.802 70.4848 101.272L102.1 132.852L70.4848 164.432C70.0141 164.902 69.6406 165.46 69.3859 166.075C69.1311 166.689 69 167.347 69 168.012C69 168.677 69.1311 169.336 69.3859 169.95C69.6406 170.565 70.0141 171.123 70.4848 171.593L72.1147 173.221C73.0654 174.171 74.3548 174.704 75.6993 174.704C77.0438 174.704 78.3332 174.171 79.2839 173.221L110.899 141.641L142.513 173.221C143.464 174.171 144.754 174.704 146.098 174.704C147.442 174.704 148.732 174.171 149.683 173.221L151.312 171.593C152.263 170.643 152.797 169.355 152.797 168.012C152.797 166.669 152.263 165.381 151.312 164.432L119.698 132.852L151.312 101.272C152.263 100.323 152.797 99.0349 152.797 97.6919C152.797 96.3489 152.263 95.0609 151.312 94.1112Z" fill="#FFAF37"/>
<path opacity="0.1" d="M69.3564 166.149L100.032 135.507L99.7371 135.212L70.4847 164.432C69.9947 164.921 69.6107 165.505 69.3564 166.149Z" fill="#1C1C1C"/>
<path opacity="0.1" d="M70.0475 95.1378C70.9982 94.1882 72.2877 93.6547 73.6321 93.6547C74.9766 93.6547 76.266 94.1882 77.2167 95.1378L108.831 126.718L140.446 95.1378C141.397 94.1882 142.686 93.6547 144.031 93.6547C145.375 93.6547 146.665 94.1882 147.615 95.1378L149.245 96.7659C149.945 97.4645 150.424 98.3522 150.624 99.3196C150.825 100.287 150.738 101.292 150.374 102.21L151.312 101.272C151.783 100.802 152.157 100.244 152.411 99.6297C152.666 99.0153 152.797 98.3568 152.797 97.6919C152.797 97.0269 152.666 96.3684 152.411 95.754C152.157 95.1397 151.783 94.5815 151.312 94.1112L149.682 92.4831C148.732 91.5335 147.442 91 146.098 91C144.753 91 143.464 91.5335 142.513 92.4831L110.899 124.063L79.2838 92.4831C78.3331 91.5335 77.0437 91 75.6992 91C74.3547 91 73.0653 91.5335 72.1146 92.4831L70.4847 94.1112C69.9947 94.6002 69.6107 95.1846 69.3564 95.8282L70.0475 95.1378Z" fill="#1C1C1C"/>
<path opacity="0.1" d="M119.993 133.147L117.631 135.507L149.246 167.086C149.945 167.785 150.424 168.673 150.625 169.64C150.825 170.607 150.738 171.612 150.374 172.531L151.313 171.593C151.783 171.123 152.157 170.565 152.411 169.95C152.666 169.336 152.797 168.677 152.797 168.012C152.797 167.347 152.666 166.689 152.411 166.075C152.157 165.46 151.783 164.902 151.313 164.432L119.993 133.147Z" fill="#1C1C1C"/>
</g>
<defs>
<clipPath id="clip0_31_9065">
<rect width="264" height="198" fill="white"/>
</clipPath>
</defs>
</svg>
